<svg xmlns="http://www.w3.org/2000/svg" viewBox="2125 -235.262 25 25">
  <defs>
    <style>
      .cls-1 {
        fill: #fff;
      }
    </style>
  </defs>
  <g id="_x31_026-revert-toolbar_x40_2x.png_2_" transform="translate(2125 -235.262)">
    <g id="Group_14" data-name="Group 14" transform="translate(0)">
      <g id="Group_13" data-name="Group 13" transform="translate(0)">
        <path id="Path_17" data-name="Path 17" class="cls-1" d="M10.647,15.332v4.539h0V15.332ZM11.73,0h0C11.725,0,7.7,0,7.5.3c0,0,.682.06,4.223.685,1.243.25,7.65.715,7.65,7.528,0,4.614-5.686,5.534-8.123,5.659V10.818a.6.6,0,0,0-.418-.565.624.624,0,0,0-.6.1l-.005,0-10,6.824.005,0a.518.518,0,0,0,0,.87l-.005,0,10,6.819.005-.005a.64.64,0,0,0,.6.1.607.607,0,0,0,.418-.565V21C15.778,20.83,25,19.541,25,10.763,25,.02,12.22,0,11.73,0ZM10.647,19.871v0a.567.567,0,0,0-.6.57v2.839L1.688,17.606l8.353-5.679v2.839a.567.567,0,0,0,.6.57h0c5.439-.275,10-2.195,10-6.814a7.8,7.8,0,0,0-2.42-6.079,8.535,8.535,0,0,1,5.543,8.318C23.768,18.081,16.438,19.671,10.647,19.871Z" transform="translate(0)"/>
      </g>
    </g>
  </g>
</svg>
