<svg xmlns="http://www.w3.org/2000/svg" viewBox="6065 331 19.243 19.243">
  <defs>
    <style>
      .cls-1 {
        fill: #fff;
      }
    </style>
  </defs>
  <g id="plus_2_" transform="translate(6065 331)">
    <g id="_x37_46-plus-circle-selected_x40_2x.png_2_">
      <g id="Group_16" data-name="Group 16">
        <path id="Path_19" data-name="Path 19" class="cls-1" d="M9.621,0a9.621,9.621,0,1,0,9.621,9.621A9.62,9.62,0,0,0,9.621,0Zm4.811,9.971H9.971v4.46a.355.355,0,0,1-.35.343.343.343,0,0,1-.343-.343V9.971H4.811a.355.355,0,0,1-.343-.35.343.343,0,0,1,.343-.343H9.279V4.811a.343.343,0,0,1,.343-.343.355.355,0,0,1,.35.343V9.279h4.46a.343.343,0,0,1,.343.343A.355.355,0,0,1,14.432,9.971Z"/>
      </g>
    </g>
  </g>
</svg>
