<svg xmlns="http://www.w3.org/2000/svg" viewBox="0 0 24.262 24.269"><defs><style>.a{fill:#fff;}</style></defs><g transform="translate(0.009)"><g transform="translate(-0.009)"><path class="a" d="M22.212,5.559a2.152,2.152,0,0,0-.607-.083c-1.393,0-2.767,1.267-3.248,3.107-.544,2.112.3,4.18,1.879,4.617a2.152,2.152,0,0,0,.607.083c1.393,0,2.767-1.267,3.243-3.107C24.634,8.069,23.794,6,22.212,5.559ZM8.915,7.811a2.344,2.344,0,0,0,.607-.083c1.583-.442,2.422-2.51,1.879-4.617C10.924,1.267,9.551,0,8.157,0A2.344,2.344,0,0,0,7.55.083C5.968.524,5.128,2.592,5.672,4.7,6.143,6.544,7.516,7.811,8.915,7.811Zm5.811-.083a2.152,2.152,0,0,0,.607.083c1.393,0,2.767-1.267,3.243-3.107.544-2.112-.3-4.18-1.879-4.617A2.372,2.372,0,0,0,16.09,0C14.7,0,13.323,1.272,12.847,3.112,12.3,5.219,13.143,7.287,14.726,7.729Zm5,8.758a5.653,5.653,0,0,1-2.456-1.563,7.666,7.666,0,0,1-1.354-2.879c-.5-1.655-.981-3.214-3.67-3.214h-.238c-2.69,0-3.165,1.563-3.67,3.214a7.8,7.8,0,0,1-1.354,2.884,5.681,5.681,0,0,1-2.456,1.563c-1.418.568-2.884,1.165-2.884,3.85,0,1.859.553,3.835,4.651,3.927h.189a4.271,4.271,0,0,0,2.845-.854,4.088,4.088,0,0,1,2.8-.806,4.114,4.114,0,0,1,2.8.806,4.27,4.27,0,0,0,2.835.854h0c.063,0,.131,0,.2,0,4.1-.092,4.651-2.068,4.651-3.927C22.6,17.657,21.144,17.059,19.726,16.487ZM4.011,13.2c1.583-.442,2.422-2.51,1.879-4.617-.476-1.845-1.85-3.107-3.248-3.107a2.344,2.344,0,0,0-.607.083C.453,6.005-.387,8.073.157,10.18c.476,1.84,1.85,3.107,3.243,3.107A2.186,2.186,0,0,0,4.011,13.2Z" transform="translate(0.009)"/></g></g></svg>