<svg xmlns="http://www.w3.org/2000/svg" viewBox="2066 -258 25 25">
  <defs>
    <style>
      .cls-1 {
        fill: #fff;
      }
    </style>
  </defs>
  <g id="_x37_85-floppy-disk-selected_x40_2x.png_2_" transform="translate(2066 -258)">
    <g id="Group_13" data-name="Group 13">
      <path id="Path_17" data-name="Path 17" class="cls-1" d="M15.15,8.9h1.8V4.45h-1.8ZM14.7,16.95a.445.445,0,1,0-.445-.445A.446.446,0,0,0,14.7,16.95Zm-8.07,0H12.95a.45.45,0,1,0,.01-.9H6.645a.45.45,0,1,0-.01.9Zm-.03,2.7H18.33a.45.45,0,1,0,.01-.9H6.615a.45.45,0,1,0-.01.9ZM21.43,0H1.785A1.786,1.786,0,0,0,0,1.785v21.43A1.786,1.786,0,0,0,1.785,25h21.43A1.786,1.786,0,0,0,25,23.215V3.57ZM7.15,3.55h10.7V9.8H7.15ZM20.5,24.1H4.45V14.3H20.5Z"/>
    </g>
  </g>
</svg>
