<svg xmlns="http://www.w3.org/2000/svg" viewBox="2002.269 211.311 45 45">
  <defs>
    <style>
      .cls-1 {
        opacity: 0.3;
      }

      .cls-2 {
        fill: #fff;
      }
    </style>
  </defs>
  <g id="cog_wheel_2_" class="cls-1" transform="translate(2002.269 211.311)">
    <g id="Group_12" data-name="Group 12">
      <g id="Group_11" data-name="Group 11">
        <path id="Path_16" data-name="Path 16" class="cls-2" d="M23.649,45H21.274a4.678,4.678,0,0,1-4.706-4.637v-1.05a16.629,16.629,0,0,1-1.759-.734l-.743.743a4.722,4.722,0,0,1-6.662,0L5.739,37.657a4.715,4.715,0,0,1,0-6.66l.777-.786c-.231-.529-.461-1.119-.7-1.776H4.706A4.691,4.691,0,0,1,0,23.764V21.373a4.828,4.828,0,0,1,4.714-4.807H5.842c.231-.632.453-1.2.683-1.716l-.769-.76a4.764,4.764,0,0,1-.009-6.694L7.43,5.7a4.775,4.775,0,0,1,6.662.009l.009.009.717.743a18.643,18.643,0,0,1,1.759-.734V4.765A4.787,4.787,0,0,1,21.274,0h2.374a4.8,4.8,0,0,1,4.706,4.765v1.05a18.643,18.643,0,0,1,1.759.734l.752-.751a4.787,4.787,0,0,1,6.645,0l1.674,1.665a4.7,4.7,0,0,1,0,6.643l-.769.76c.265.589.5,1.178.683,1.691H40.26a4.665,4.665,0,0,1,3.331,1.417A4.838,4.838,0,0,1,45,21.322V23.7a4.688,4.688,0,0,1-4.723,4.637H39.15c-.239.649-.47,1.238-.709,1.768l.794.8a4.7,4.7,0,0,1-.017,6.643l-1.691,1.674a4.808,4.808,0,0,1-6.662,0l-.752-.743a18.048,18.048,0,0,1-1.776.734v1.144A4.654,4.654,0,0,1,23.649,45Zm-9.266-9.256.76.418a14.555,14.555,0,0,0,2.912,1.213l.828.248v2.741a2.366,2.366,0,0,0,2.4,2.331h2.374a2.372,2.372,0,0,0,2.4-2.331V37.52l.828-.248a14.629,14.629,0,0,0,2.921-1.213l.752-.41L32.514,37.6a2.523,2.523,0,0,0,3.416,0l1.691-1.674a2.391,2.391,0,0,0,.009-3.373l-.009-.009-1.939-1.964.367-.734a23.067,23.067,0,0,0,1.213-3.014l.265-.786h2.767a2.376,2.376,0,0,0,2.417-2.331V21.347a2.512,2.512,0,0,0-2.434-2.485h-2.8l-.265-.786a23.117,23.117,0,0,0-1.2-2.929l-.384-.751,1.947-1.93a2.4,2.4,0,0,0-.009-3.381L35.887,7.429a2.491,2.491,0,0,0-3.391,0L30.558,9.367l-.752-.4a16.474,16.474,0,0,0-2.929-1.221l-.82-.248V4.765a2.465,2.465,0,0,0-2.4-2.459H21.283a2.467,2.467,0,0,0-2.408,2.459V7.412l-.82.248A15.884,15.884,0,0,0,15.134,8.88l-.769.418L12.444,7.326a2.468,2.468,0,0,0-3.382.009L7.379,9.026a2.445,2.445,0,0,0,.009,3.441l1.93,1.9-.376.751a23.762,23.762,0,0,0-1.2,2.963l-.265.786H4.714a2.523,2.523,0,0,0-2.408,2.5v2.391a2.386,2.386,0,0,0,2.408,2.365H7.473l.265.786a23.513,23.513,0,0,0,1.2,3.014l.367.734L7.37,32.619a2.419,2.419,0,0,0-.009,3.407l1.665,1.665a2.413,2.413,0,0,0,3.4,0Zm8.1-4.927a8.266,8.266,0,1,1,8.267-8.266A8.273,8.273,0,0,1,22.487,30.817Zm0-14.226a5.96,5.96,0,1,0,5.961,5.96A5.966,5.966,0,0,0,22.487,16.591Z"/>
      </g>
    </g>
  </g>
</svg>
